<svg width="24" height="24" viewBox="0 0 24 24" fill="none" xmlns="http://www.w3.org/2000/svg">
<path d="M10.4992 18.0025H4.99693C3.8919 18.0025 2.99609 17.1067 2.99609 16.0016V4.99705C2.99609 3.89202 3.8919 2.99622 4.99693 2.99622H16.0015C17.1065 2.99622 18.0023 3.89202 18.0023 4.99705V10.4993" stroke="currentColor" stroke-width="1.5" stroke-linecap="round" stroke-linejoin="round"/>
<path d="M18.0023 10.4994H2.99609" stroke="currentColor" stroke-width="1.5" stroke-linecap="round" stroke-linejoin="round"/>
<path d="M10.4992 2.99622V18.0025" stroke="currentColor" stroke-width="1.5" stroke-linecap="round" stroke-linejoin="round"/>
<path fill-rule="evenodd" clip-rule="evenodd" d="M18.2953 20.7107L21.7108 17.2953C22.1013 16.9046 22.1013 16.2713 21.7108 15.8807L20.1241 14.294C19.7334 13.9035 19.1002 13.9035 18.7095 14.294L15.2941 17.7094C15.1065 17.897 15.001 18.1514 15.001 18.4167V21.0038H17.5881C17.8534 21.0038 18.1078 20.8983 18.2953 20.7107Z" stroke="currentColor" stroke-width="1.5" stroke-linecap="round" stroke-linejoin="round"/>
</svg>
