<svg width="24" height="24" viewBox="0 0 24 24" fill="none" xmlns="http://www.w3.org/2000/svg">
<path d="M7.49826 2.99622V5.99747" stroke="currentColor" stroke-width="1.5" stroke-linecap="round" stroke-linejoin="round"/>
<path d="M16.5022 2.99622V5.99747" stroke="currentColor" stroke-width="1.5" stroke-linecap="round" stroke-linejoin="round"/>
<rect x="2.99609" y="4.49683" width="18.0075" height="16.5069" rx="3" stroke="currentColor" stroke-width="1.5" stroke-linecap="round" stroke-linejoin="round"/>
<path d="M7.49805 16.0017H13.0003" stroke="currentColor" stroke-width="1.5" stroke-linecap="round" stroke-linejoin="round"/>
<path d="M16.3772 16.1267C16.4462 16.1267 16.5022 16.0707 16.5022 16.0017C16.5022 15.9326 16.4462 15.8766 16.3772 15.8766C16.3081 15.8766 16.2521 15.9326 16.2521 16.0017C16.2521 16.0707 16.3081 16.1267 16.3772 16.1267" stroke="currentColor" stroke-width="1.5" stroke-linecap="round" stroke-linejoin="round"/>
<path d="M16.5023 12H10.875" stroke="currentColor" stroke-width="1.5" stroke-linecap="round" stroke-linejoin="round"/>
<path d="M7.62326 11.8749C7.55419 11.8749 7.4982 11.9309 7.4982 12C7.4982 12.069 7.55419 12.125 7.62326 12.125C7.69232 12.125 7.74831 12.069 7.74831 12C7.74831 11.9309 7.69232 11.8749 7.62326 11.8749" stroke="currentColor" stroke-width="1.5" stroke-linecap="round" stroke-linejoin="round"/>
</svg>
